<?xml version="1.0" encoding="UTF-8" standalone="no"?>
<svg
   width="16px"
   height="16px"
   version="1.1"
   xml:space="preserve"
   style="fill-rule:evenodd;clip-rule:evenodd;stroke-linejoin:round;stroke-miterlimit:2;"
   id="svg12"
   sodipodi:docname="loopfrombegin.svg"
   inkscape:version="1.2.1 (9c6d41e410, 2022-07-14)"
   xmlns:inkscape="http://www.inkscape.org/namespaces/inkscape"
   xmlns:sodipodi="http://sodipodi.sourceforge.net/DTD/sodipodi-0.dtd"
   xmlns="http://www.w3.org/2000/svg"
   xmlns:svg="http://www.w3.org/2000/svg"><defs
   id="defs16" /><sodipodi:namedview
   id="namedview14"
   pagecolor="#ffffff"
   bordercolor="#000000"
   borderopacity="0.25"
   inkscape:showpageshadow="2"
   inkscape:pageopacity="0.0"
   inkscape:pagecheckerboard="0"
   inkscape:deskcolor="#d1d1d1"
   showgrid="true"
   inkscape:zoom="64.1875"
   inkscape:cx="7.9922103"
   inkscape:cy="8"
   inkscape:window-width="1412"
   inkscape:window-height="1230"
   inkscape:window-x="54"
   inkscape:window-y="24"
   inkscape:window-maximized="0"
   inkscape:current-layer="svg12"><inkscape:grid
     type="xygrid"
     id="grid4021" /></sodipodi:namedview>
    <g
   transform="matrix(1,0,0,1,-70,-150)"
   id="g10">
        <g
   id="loop">
            <g
   id="bg"
   transform="matrix(0.110345,0,0,0.121212,53.7793,131.091)">
                <rect
   x="147"
   y="156"
   width="145"
   height="132"
   style="fill:rgb(135,135,135);fill-opacity:0;"
   id="rect2" />
            </g>
            <g
   transform="matrix(1,0,0,1,67,146.979)"
   id="g7">
                <path
   d="m 18,14.054 c 0,0.522 -0.207,1.022 -0.576,1.391 -0.37,0.368 -0.869,0.576 -1.392,0.576 H 8 v 2 l -4,-3 4,-3 v 2 h 6.968 c 0.57,0 1.032,-0.462 1.032,-1.031 v -0.97 c 0,-0.552 0.447,-0.999 0.999,-0.999 h 0.002 c 0.552,0 0.999,0.447 0.999,0.999 z M 8,6.021 h 6 v -2 l 4,3 -4,3 v -2 H 8 Z"
   style="fill-rule:nonzero"
   id="path5"
   sodipodi:nodetypes="scscccccssssssscccccccc" />
            </g>
        </g>
    </g><path
   d="M 4,2 C 4,1.735 3.895,1.48 3.707,1.293 3.52,1.105 3.265,1 3,1 2.735,1 2.48,1.105 2.293,1.293 2.105,1.48 2,1.735 2,2 V 7 C 2,7.265 2.105,7.519 2.293,7.707 2.48,7.895 2.735,8 3,8 3.265,8 3.52,7.895 3.707,7.707 3.895,7.519 4,7.265 4,7 Z"
   id="path1165"
   style="clip-rule:evenodd;fill-rule:evenodd;stroke-linejoin:round;stroke-miterlimit:2"
   sodipodi:nodetypes="scscsscscss" />
</svg>
