<?xml version="1.0" encoding="UTF-8" standalone="no"?>
<svg
   xmlns:dc="http://purl.org/dc/elements/1.1/"
   xmlns:cc="http://creativecommons.org/ns#"
   xmlns:rdf="http://www.w3.org/1999/02/22-rdf-syntax-ns#"
   xmlns:svg="http://www.w3.org/2000/svg"
   xmlns="http://www.w3.org/2000/svg"
   xmlns:sodipodi="http://sodipodi.sourceforge.net/DTD/sodipodi-0.dtd"
   xmlns:inkscape="http://www.inkscape.org/namespaces/inkscape"
   width="16px"
   height="16px"
   version="1.1"
   xml:space="preserve"
   style="fill-rule:evenodd;clip-rule:evenodd;stroke-linejoin:round;stroke-miterlimit:2;"
   id="svg4524"
   sodipodi:docname="new_scene_folder.svg"
   inkscape:version="0.92.1 r15371"><metadata
     id="metadata4530"><rdf:RDF><cc:Work
         rdf:about=""><dc:format>image/svg+xml</dc:format><dc:type
           rdf:resource="http://purl.org/dc/dcmitype/StillImage" /><dc:title></dc:title></cc:Work></rdf:RDF></metadata><defs
     id="defs4528" /><sodipodi:namedview
     pagecolor="#ffffff"
     bordercolor="#666666"
     borderopacity="1"
     objecttolerance="10"
     gridtolerance="10"
     guidetolerance="10"
     inkscape:pageopacity="0"
     inkscape:pageshadow="2"
     inkscape:window-width="2560"
     inkscape:window-height="1377"
     id="namedview4526"
     showgrid="true"
     inkscape:zoom="29.5"
     inkscape:cx="-8.6448307"
     inkscape:cy="2.5754172"
     inkscape:window-x="-8"
     inkscape:window-y="-8"
     inkscape:window-maximized="1"
     inkscape:current-layer="g4522"><inkscape:grid
       type="xygrid"
       id="grid5662" /></sodipodi:namedview><g
     transform="matrix(1,0,0,1,-50,-490)"
     id="g4522"><path
       style="clip-rule:evenodd;fill-rule:evenodd;stroke-linejoin:round;stroke-miterlimit:2;fill:#000000;fill-opacity:1"
       d="M 1 2 L 1 14 L 8.2558594 14 C 8.1436511 13.682978 8.0814023 13.345287 8.0429688 13 L 2 13 L 2 10 L 8.7617188 10 C 9.0168363 9.6193221 9.3336405 9.2866773 9.6894531 9 L 2 9 L 2 8.0371094 C 2 7.4837594 2.4905 7.3214844 3.3125 7.0214844 L 5.484375 6.2148438 L 5.484375 7.4433594 L 4 8 L 10 8 L 10 8.7675781 C 10.715477 8.2861625 11.572946 8 12.5 8 C 13.425 8 14.285 8.2797656 15 8.7597656 L 15 4 L 8 4 L 6 2 L 1 2 z M 9.484375 4.9609375 L 9.484375 6.1914062 L 8.484375 6.5351562 L 8.484375 5.3066406 L 9.484375 4.9609375 z M 7.484375 5.5839844 L 7.484375 6.8125 L 6.484375 7.1914062 L 6.484375 5.9628906 L 7.484375 5.5839844 z "
       transform="translate(50,490)"
       id="path5083" /><g
       transform="matrix(0.110345,0,0,0.121212,33.78,471.091)"
       id="bg"><rect
         id="rect4513"
         style="fill:#878787;fill-opacity:0"
         height="132"
         width="145"
         y="156"
         x="147" /></g><g
       transform="translate(45.0003,485)"
       id="add"><path
         inkscape:connector-curvature="0"
         id="path4516"
         d="M 17.5,14 C 19.432,14 21,15.568 21,17.5 21,19.432 19.432,21 17.5,21 15.568,21 14,19.432 14,17.5 14,15.568 15.568,14 17.5,14 Z m 0.5,3 h 2 v 1 h -2 v 2 h -1 v -2 h -2 v -1 h 2 v -2 h 1 z"
         style="fill:#000000;fill-opacity:1" /></g></g></svg>