<?xml version="1.0" standalone="no"?><!-- Generator: Gravit.io --><svg xmlns="http://www.w3.org/2000/svg" xmlns:xlink="http://www.w3.org/1999/xlink" style="isolation:isolate" viewBox="0 0 120 120" width="120" height="120"><path d=" M 105.62958980088655 29.185768741769248 C 105.93799970573238 31.656496106394705 104.17990011277871 33.82287164513767 101.78324161304604 34.11484213366721 L 80.14104864272042 36.40614490460061 C 77.7429719846395 36.69327487419695 74.59190565126454 36.13345210777792 74.38927541578106 33.82631634336495 C 74.11398658932603 31.540467839426285 76.78910742415026 27.801219940250952 79.13239365676031 27.614288527361648 L 89.86707311512328 26.451882176385332 C 80.48578566706628 18.125146841135628 67.92946719885128 13.62627142766403 54.71922481404657 15.098505643333867 C 51.99958515067405 15.400960792547814 49.41928481953386 15.909760485582867 46.83302973276179 16.667472477364996 C 25.595687082029304 22.889515029296838 11.952399528153702 43.741435296636624 14.58795622764374 66.27144324059861 C 15.962015284316973 78.59014104522115 22.026089516973 89.70306204998583 31.600394757950387 97.5577975430026 C 41.17469613781476 105.41252413668893 53.118575771523865 108.93387774852575 65.31326438064858 107.67503695482239 C 67.96025469068113 107.3938663596737 70.61462388671414 106.86862725032238 73.20087897348621 106.11091525854026 C 94.44306676196766 99.88745319505558 107.98615691384016 78.98074216394376 105.45079693975096 56.50552267434591 L 105.5044957506168 55.00152299149411 C 105.32351312133905 52.40932119452576 106.23669261361934 50.159178469956444 108.52267386798084 49.48943965792738 C 110.72632011232018 48.84382306986469 113.23131722701709 50.33968803348576 113.5005803843173 52.65885801414974 L 114.09250811935644 55.54085168925333 C 117.18284768080969 82.7284759454584 100.51323809019982 107.35942562035477 75.69678895112769 114.63006230360448 C 72.6552756685829 115.52115425317129 69.51951993816749 116.10854809733591 66.31849835922833 116.47315662815863 C 36.43363745222928 119.6910952843287 9.390075721356215 97.62275116688872 5.917271714302597 67.1551954616106 C 2.776988696433648 40.06635222166652 19.519245301625606 15.41411428954222 44.335699059513516 8.14347625308798 C 47.30456760753408 7.273667504381889 50.49026552921072 6.587501164435334 53.71541000871852 6.305229953042662 C 69.56779773495735 4.5532452311289315 84.62801946069837 9.969828831587574 95.82656269271382 19.993922439801214 L 94.4082062337828 8.09839438259175 C 94.19514479077814 5.683877153490595 95.86273711742614 3.4598756302829123 98.2772489113087 3.2468170334878614 C 100.67390741104134 2.954846544958322 102.84170640355065 4.717787613048554 103.07747123557112 7.209797023830781 L 105.62958980088655 29.185768741769248 Z " fill="rgb(0,0,0)"/></svg>