<?xml version="1.0" standalone="no"?><!-- Generator: Gravit.io --><svg xmlns="http://www.w3.org/2000/svg" xmlns:xlink="http://www.w3.org/1999/xlink" style="isolation:isolate" viewBox="0 0 120 120" width="120" height="120"><path d=" M 20 60.00000000000001 C 20 37.9233992 37.923399199999984 20.000000000000007 59.99999999999999 20 C 82.0766008 20 100 37.923399199999984 100 59.99999999999999 C 100 82.0766008 82.07660080000001 100 60.000000000000014 100 C 37.923399200000006 100 20 82.07660080000001 20 60.00000000000001 Z " fill="none" vector-effect="non-scaling-stroke" stroke-width="4" stroke="rgb(0,0,0)" stroke-linejoin="miter" stroke-linecap="square" stroke-miterlimit="3"/><path d=" M 40 60 C 40 48.9616996 48.96169959999999 40 59.99999999999999 40 C 71.0383004 40 80 48.96169959999999 80 59.99999999999999 C 80 71.0383004 71.0383004 80 60.00000000000001 80 C 48.9616996 80 40 71.0383004 40 60 Z " fill="rgb(0,0,0)"/><line x1="60.09213816947707" y1="6.590887729348726" x2="60.09251413293947" y2="18.869897108902183" vector-effect="non-scaling-stroke" stroke-width="5" stroke="rgb(0,0,0)" stroke-linejoin="miter" stroke-linecap="square" stroke-miterlimit="3"/><line x1="59.9996223449707" y1="103.86049556732178" x2="60" y2="116.13950443267822" vector-effect="non-scaling-stroke" stroke-width="5" stroke="rgb(0,0,0)" stroke-linejoin="miter" stroke-linecap="square" stroke-miterlimit="3"/><line x1="3.8604955673217773" y1="60" x2="16.139504432678223" y2="59.9996223449707" vector-effect="non-scaling-stroke" stroke-width="5" stroke="rgb(0,0,0)" stroke-linejoin="miter" stroke-linecap="square" stroke-miterlimit="3"/><line x1="103.86049556732178" y1="60.00018882751465" x2="116.13950443267822" y2="59.99981117248535" vector-effect="non-scaling-stroke" stroke-width="5" stroke="rgb(0,0,0)" stroke-linejoin="miter" stroke-linecap="square" stroke-miterlimit="3"/></svg>